<svg xmlns="http://www.w3.org/2000/svg" viewBox="0 0 16 16" style="stroke: #ffffff;">
  <path stroke-width="0" fill="#ffffff" d="M8 .664a7.333 7.333 0 1 0 0 14.667A7.333 7.333 0 0 0 8 .664Zm3.577 10.572a.64.64 0 0 1-.869.244 7.595 7.595 0 0 0-2.968-.934 7.634 7.634 0 0 0-3.102.321.638.638 0 0 1-.388-1.215 8.878 8.878 0 0 1 3.62-.375 8.875 8.875 0 0 1 3.462 1.091c.307.171.417.56.245.867Zm.878-2.228a.637.637 0 0 1-.86.271A9.968 9.968 0 0 0 7.979 8.2a9.937 9.937 0 0 0-3.783.337.637.637 0 0 1-.353-1.225 11.21 11.21 0 0 1 4.265-.38c1.436.146 2.807.554 4.077 1.216a.638.638 0 0 1 .27.86Zm.318-1.853a.642.642 0 0 1-.285-.067 12.321 12.321 0 0 0-4.27-1.233 12.296 12.296 0 0 0-4.44.351.638.638 0 0 1-.329-1.232 13.592 13.592 0 0 1 4.898-.387c1.652.167 3.237.625 4.71 1.36a.638.638 0 0 1-.284 1.208Z"/>
</svg>